<svg width="26" height="23" viewBox="0 0 26 23" fill="none" xmlns="http://www.w3.org/2000/svg">
<path d="M23.8388 13.5358L25.9726 4.19206C26.1267 3.51743 25.6114 2.875 24.9162 2.875H7.18647L6.77273 0.862051C6.66963 0.360318 6.22601 0 5.71138 0H1.08333C0.485017 0 0 0.482686 0 1.07812V1.79688C0 2.39231 0.485017 2.875 1.08333 2.875H4.23778L7.40869 18.3027C6.65009 18.7369 6.13889 19.551 6.13889 20.4844C6.13889 21.8737 7.27061 23 8.66667 23C10.0627 23 11.1944 21.8737 11.1944 20.4844C11.1944 19.7803 10.9034 19.1441 10.435 18.6875H19.8983C19.4299 19.1441 19.1389 19.7803 19.1389 20.4844C19.1389 21.8737 20.2706 23 21.6667 23C23.0627 23 24.1944 21.8737 24.1944 20.4844C24.1944 19.4884 23.6127 18.6277 22.769 18.2201L23.018 17.1296C23.1721 16.4549 22.6568 15.8125 21.9617 15.8125H9.84556L9.55013 14.375H22.7824C23.2882 14.375 23.7267 14.0267 23.8388 13.5358Z" fill="white"/>
</svg>
