<svg width="39" height="39" viewBox="0 0 39 39" fill="none" xmlns="http://www.w3.org/2000/svg">
<path d="M19.5017 38.9999C15.6452 39.0022 11.8748 37.86 8.6675 35.7179C5.46025 33.5758 2.96037 30.5301 1.48426 26.9663C0.008143 23.4025 -0.377848 19.4807 0.375134 15.6974C1.12812 11.914 2.98622 8.43918 5.71429 5.71259C9.37093 2.05488 14.3304 0 19.5017 0C24.673 0 29.6324 2.05488 33.2891 5.71259C36.9457 9.37029 39 14.3312 39 19.504C39 24.6768 36.9457 29.6377 33.2891 33.2954C31.4822 35.111 29.3333 36.55 26.9666 37.5292C24.6 38.5083 22.0627 39.0082 19.5017 38.9999ZM3.90949 19.8393C3.95379 23.9611 5.62745 27.8977 8.56469 30.7888C11.5019 33.6799 15.4639 35.2903 19.5846 35.2682C23.7053 35.246 27.6497 33.593 30.5557 30.6705C33.4617 27.748 35.093 23.7936 35.093 19.6717C35.093 15.5497 33.4617 11.5953 30.5557 8.67278C27.6497 5.75028 23.7053 4.09731 19.5846 4.07515C15.4639 4.053 11.5019 5.66346 8.56469 8.55455C5.62745 11.4456 3.95379 15.3822 3.90949 19.504V19.8393ZM14.4518 27.3024L11.7036 24.5534L16.7536 19.504L11.7056 14.4545L14.4537 11.7056L19.5017 16.7551L24.5497 11.7056L27.2978 14.4545L22.2498 19.504L27.2978 24.5534L24.5536 27.3024L19.5017 22.2529L14.4537 27.3024H14.4518Z" fill="#F94892"/>
</svg>
