<svg width="39" height="39" viewBox="0 0 39 39" fill="none" xmlns="http://www.w3.org/2000/svg">
<path d="M19.4943 39C16.9335 39.0026 14.3974 38.4999 12.0311 37.5209C9.6648 36.5419 7.51475 35.1057 5.70403 33.2945C3.89331 31.4834 2.45747 29.3328 1.4787 26.9659C0.499929 24.599 -0.00255483 22.0622 9.76757e-06 19.5009V19.1109C0.0780031 15.2879 1.27746 11.5721 3.4493 8.42539C5.62114 5.27865 8.66961 2.83968 12.2158 1.41162C15.762 -0.0164405 19.6496 -0.37063 23.3954 0.393072C27.1412 1.15678 30.58 3.0047 33.2845 5.70717C36.0132 8.43421 37.8717 11.9096 38.6248 15.6936C39.3779 19.4776 38.9919 23.4 37.5154 26.9644C36.039 30.5288 33.5386 33.575 30.3307 35.7174C27.1228 37.8599 23.3515 39.0023 19.4943 39V39ZM19.4943 22.2502L24.5433 27.3005L27.292 24.5511L22.243 19.5009L27.292 14.4506L24.5433 11.7012L19.4943 16.7515L14.4453 11.7012L11.6966 14.4506L16.7456 19.5009L11.6966 24.5511L14.4453 27.3005L19.4943 22.2522V22.2502Z" fill="#F94892"/>
</svg>
