<svg width="108" height="35" viewBox="0 0 108 35" fill="none" xmlns="http://www.w3.org/2000/svg">
<path d="M34.2881 26.3681C34.2881 26.6199 34.1975 26.8364 34.0162 27.0176C33.845 27.1888 33.6336 27.2744 33.3818 27.2744C33.1301 27.2744 32.9136 27.1888 32.7323 27.0176C32.5611 26.8364 32.4755 26.6199 32.4755 26.3681V15.6587C32.4755 15.407 32.5611 15.1955 32.7323 15.0243C32.9136 14.8431 33.1301 14.7524 33.3818 14.7524C33.6336 14.7524 33.845 14.8431 34.0162 15.0243C34.1975 15.1955 34.2881 15.407 34.2881 15.6587V26.3681ZM37.9784 27.3046C37.7166 27.3046 37.49 27.214 37.2987 27.0327C37.1074 26.8515 37.0117 26.64 37.0117 26.3983V15.7645C37.0117 15.5026 37.1124 15.2761 37.3138 15.0847C37.5253 14.8833 37.772 14.7826 38.054 14.7826C38.3661 14.7826 38.6279 14.9186 38.8394 15.1905L45.6366 23.5586L45.7574 23.8003V15.5681C45.7574 15.3264 45.8531 15.115 46.0444 14.9337C46.2358 14.7524 46.4623 14.6618 46.7242 14.6618C46.986 14.6618 47.2126 14.7524 47.4039 14.9337C47.6053 15.115 47.706 15.3264 47.706 15.5681V26.1264C47.706 26.3882 47.6002 26.6199 47.3888 26.8212C47.1773 27.0126 46.9306 27.1082 46.6486 27.1082C46.5077 27.1082 46.3667 27.073 46.2257 27.0025C46.0847 26.9219 45.9639 26.8212 45.8632 26.7004L39.0811 18.3776L38.9602 18.1208V26.3983C38.9602 26.64 38.8595 26.8515 38.6581 27.0327C38.4668 27.214 38.2402 27.3046 37.9784 27.3046ZM51.1524 27.1989C50.8603 27.1989 50.6136 27.1082 50.4122 26.927C50.2209 26.7357 50.1252 26.504 50.1252 26.2322V15.8098C50.1252 15.5379 50.2209 15.3113 50.4122 15.1301C50.6136 14.9387 50.8603 14.8431 51.1524 14.8431H53.6598C54.9487 14.8431 56.1168 15.0999 57.1641 15.6134C58.2114 16.127 59.0321 16.8369 59.6262 17.7432C60.2304 18.6394 60.5325 19.6565 60.5325 20.7944C60.5325 21.9726 60.2304 23.0501 59.6262 24.0268C59.022 25.0036 58.1963 25.779 57.149 26.353C56.1017 26.9169 54.9387 27.1989 53.6598 27.1989H51.1524ZM52.0738 25.2503H53.6598C54.6064 25.2503 55.4522 25.0691 56.1974 24.7066C56.9527 24.334 57.5367 23.8103 57.9496 23.1357C58.3725 22.461 58.584 21.6805 58.584 20.7944C58.584 19.9989 58.3725 19.299 57.9496 18.6948C57.5367 18.0906 56.9527 17.6224 56.1974 17.2901C55.4522 16.9578 54.6064 16.7916 53.6598 16.7916H52.0738V25.2503ZM70.2616 15.7494C70.2616 15.4976 70.3573 15.2861 70.5486 15.115C70.7399 14.9337 70.9665 14.8431 71.2283 14.8431C71.4901 14.8431 71.7167 14.9337 71.908 15.115C72.1094 15.2861 72.2101 15.4976 72.2101 15.7494V22.2445C72.2101 23.2917 72.0188 24.2031 71.6361 24.9785C71.2535 25.7438 70.6996 26.3329 69.9746 26.7457C69.2596 27.1586 68.4087 27.365 67.4219 27.365C66.435 27.365 65.5841 27.1586 64.8691 26.7457C64.1542 26.3329 63.6054 25.7438 63.2227 24.9785C62.8401 24.2031 62.6487 23.2917 62.6487 22.2445V15.6134C62.6487 15.3617 62.7444 15.1502 62.9357 14.979C63.1271 14.7978 63.3536 14.7071 63.6154 14.7071C63.8773 14.7071 64.1038 14.7978 64.2952 14.979C64.4966 15.1502 64.5973 15.3617 64.5973 15.6134V22.2445C64.5973 23.2414 64.844 24.0218 65.3374 24.5857C65.8409 25.1396 66.5357 25.4165 67.4219 25.4165C68.3181 25.4165 69.0129 25.1396 69.5064 24.5857C70.0098 24.0218 70.2616 23.2414 70.2616 22.2445V15.7494ZM79.6413 25.2957C79.893 25.2957 80.1045 25.3863 80.2757 25.5675C80.4569 25.7387 80.5476 25.9502 80.5476 26.2019C80.5476 26.4537 80.4569 26.6702 80.2757 26.8515C80.1045 27.0226 79.893 27.1082 79.6413 27.1082H75.5932C75.3112 27.1082 75.0796 27.0176 74.8983 26.8364C74.7171 26.6551 74.6264 26.4235 74.6264 26.1415V15.6738C74.6264 15.4221 74.712 15.2106 74.8832 15.0394C75.0645 14.8582 75.281 14.7675 75.5327 14.7675C75.7845 14.7675 75.996 14.8582 76.1671 15.0394C76.3484 15.2106 76.439 15.4221 76.439 15.6738V25.2957H79.6413ZM88.4846 27.4254C87.2863 27.4254 86.2088 27.1586 85.2521 26.6249C84.3056 26.0912 83.5604 25.341 83.0166 24.3743C82.4829 23.3975 82.2161 22.2847 82.2161 21.0361C82.2161 19.8378 82.5031 18.7603 83.077 17.8036C83.651 16.8369 84.4314 16.0817 85.4183 15.5379C86.4051 14.984 87.5028 14.7071 88.7112 14.7071C89.557 14.7071 90.418 14.8884 91.2941 15.2509C92.1702 15.6134 92.8449 16.0867 93.3182 16.6708C93.3786 16.7513 93.4289 16.847 93.4692 16.9578C93.5095 17.0585 93.5296 17.1541 93.5296 17.2447C93.5296 17.4965 93.444 17.713 93.2728 17.8943C93.1017 18.0654 92.8851 18.151 92.6233 18.151C92.5126 18.151 92.3867 18.1208 92.2457 18.0604C92.1148 18 92.0141 17.9245 91.9436 17.8338C91.6415 17.4713 91.1632 17.1642 90.5086 16.9124C89.8541 16.6506 89.2549 16.5197 88.7112 16.5197C87.8552 16.5197 87.0798 16.711 86.385 17.0937C85.6902 17.4764 85.1464 18.0101 84.7537 18.6948C84.361 19.3796 84.1646 20.16 84.1646 21.0361C84.1646 21.9524 84.3458 22.748 84.7084 23.4226C85.0709 24.0973 85.5744 24.6109 86.2189 24.9633C86.8734 25.3158 87.6286 25.492 88.4846 25.492C89.2096 25.492 89.8491 25.4014 90.4029 25.2201C90.9668 25.0288 91.3998 24.772 91.7019 24.4498C92.0141 24.1175 92.1702 23.7499 92.1702 23.3471C92.1702 22.8839 92.0091 22.5113 91.6868 22.2294C91.3747 21.9373 90.9467 21.7913 90.4029 21.7913C89.9498 21.7913 89.4614 21.8215 88.9377 21.8819C88.8874 21.892 88.7968 21.8971 88.6658 21.8971C88.3839 21.8971 88.1573 21.8215 87.9861 21.6705C87.8149 21.5194 87.7293 21.313 87.7293 21.0512C87.7293 20.5175 88.0969 20.1902 88.832 20.0694C88.973 20.0492 89.1996 20.0291 89.5117 20.0089C89.834 19.9888 90.121 19.9787 90.3727 19.9787C91.0977 19.9787 91.7321 20.1247 92.2759 20.4168C92.8197 20.6987 93.2376 21.0965 93.5296 21.6101C93.8317 22.1136 93.9828 22.6926 93.9828 23.3471C93.9828 24.1024 93.7461 24.7922 93.2728 25.4165C92.7996 26.0408 92.14 26.5343 91.2941 26.8968C90.4583 27.2492 89.5218 27.4254 88.4846 27.4254ZM105.731 24.0268C105.983 24.0268 106.194 24.1175 106.365 24.2987C106.547 24.4699 106.637 24.6814 106.637 24.9331C106.637 25.1748 106.552 25.3913 106.38 25.5826C105.917 26.0761 105.268 26.4839 104.432 26.8061C103.596 27.1183 102.765 27.2744 101.94 27.2744C100.741 27.2744 99.6587 27.0126 98.692 26.4889C97.7252 25.9653 96.965 25.2302 96.4111 24.2836C95.8573 23.3371 95.5804 22.2495 95.5804 21.021C95.5804 19.8025 95.8573 18.715 96.4111 17.7583C96.965 16.8017 97.7252 16.0615 98.692 15.5379C99.6587 15.0042 100.741 14.7373 101.94 14.7373C102.765 14.7373 103.591 14.9035 104.417 15.2358C105.242 15.5681 105.892 16.0061 106.365 16.5499C106.536 16.7513 106.622 16.9678 106.622 17.1994C106.622 17.4512 106.531 17.6677 106.35 17.8489C106.169 18.0201 105.952 18.1057 105.701 18.1057C105.58 18.1057 105.459 18.0805 105.338 18.0302C105.217 17.9798 105.122 17.9094 105.051 17.8187C104.759 17.4663 104.326 17.1894 103.752 16.988C103.178 16.7866 102.574 16.6859 101.94 16.6859C100.822 16.6859 99.8802 16.9678 99.1149 17.5317C98.3597 18.0856 97.8713 18.866 97.6497 19.873H102.362C102.614 19.873 102.826 19.9636 102.997 20.1449C103.178 20.3161 103.269 20.5275 103.269 20.7793C103.269 21.031 103.178 21.2475 102.997 21.4288C102.826 21.6 102.614 21.6856 102.362 21.6856H97.5742C97.7051 22.8235 98.1633 23.7197 98.9487 24.3743C99.7443 25.0187 100.741 25.341 101.94 25.341C102.634 25.341 103.269 25.2503 103.843 25.0691C104.417 24.8878 104.82 24.6512 105.051 24.3592C105.132 24.2585 105.232 24.1779 105.353 24.1175C105.484 24.0571 105.61 24.0268 105.731 24.0268Z" fill="white"/>
<path d="M26.0246 17.3706V19.3007H8.86289V17.3706H9.34637C9.33672 17.2066 9.3512 17.0425 9.39462 16.8881C9.53938 16.3815 9.95917 15.9617 10.5189 15.8362L12.338 15.4164C11.6142 15.4695 10.9483 15.0111 10.7891 14.3067C10.6106 13.5298 11.1172 12.7481 11.9278 12.5599L13.7469 12.1402C13.0232 12.1884 12.3573 11.73 12.1981 11.0304C12.0195 10.2535 12.531 9.47183 13.3416 9.28365L15.1704 8.86386C14.4418 8.92658 13.7711 8.46819 13.6118 7.75889C13.4285 6.98204 13.9399 6.19553 14.7506 6.01218L15.3585 5.87225H15.3634C16.3381 5.63099 17.3706 3.37763 16.4056 2.4126H17.8532C18.6541 2.4126 19.3007 3.05917 19.3007 3.86015C19.3007 4.66113 18.8182 5.07609 18.0027 5.25945L19.3393 4.95064C20.1499 4.76246 20.9509 5.24498 21.1294 6.02183C21.2935 6.72148 20.9027 7.4163 20.2416 7.69134L20.7483 7.57553C21.5589 7.38735 22.3647 7.86505 22.5432 8.64672C22.7025 9.34155 22.3116 10.0364 21.6506 10.3114L22.162 10.1956C22.9727 10.0122 23.7736 10.4899 23.9522 11.2716C24.1162 11.9761 23.7109 12.6806 23.0354 12.9508L23.571 12.8253C24.3816 12.6371 25.1826 13.1197 25.3611 13.8965C25.5445 14.6782 25.033 15.4599 24.2224 15.6481L23.0692 15.9134L24.1259 15.9231C24.758 15.9231 25.2936 16.3236 25.4866 16.8881C25.5445 17.0377 26.0246 17.2018 26.0246 17.3706Z" fill="white"/>
<path d="M8.20278 19.3007H26.5384V24.1258H8.20278V19.3007Z" fill="#FCEA2B"/>
<path d="M25.0909 24.1259L23.1609 29.9161C22.7396 31.1803 22.08 32.3287 20.7483 32.3287H13.993C12.6613 32.3287 12.0017 31.1803 11.5804 29.9161L9.65038 24.1259" fill="#FCEA2B"/>
<path d="M20.4264 19.3007H26.5385V24.1258H20.4264V19.3007Z" fill="#F1B31C"/>
<path d="M20.92 24.1259L19.3007 30.4131C19.1202 31.1146 18.8954 31.7878 18.5923 32.3287H20.7482C22.08 32.3287 22.7396 31.1803 23.1608 29.9161L25.0909 24.1259H20.92Z" fill="#F1B31C"/>
<path d="M8.20278 19.3007H26.5384V24.1258H8.20278V19.3007Z" stroke="black" stroke-width="0.965035" stroke-miterlimit="10" stroke-linecap="round" stroke-linejoin="round"/>
<path d="M25.5734 17.3706C25.5734 16.9867 25.4209 16.6185 25.1495 16.347C24.878 16.0756 24.5098 15.9231 24.1259 15.9231L23.0552 15.9153" stroke="black" stroke-width="0.965035" stroke-miterlimit="10" stroke-linecap="round" stroke-linejoin="round"/>
<path d="M14.751 6.01021C13.9404 6.19695 13.4299 6.98007 13.6094 7.75934C13.7894 8.53812 14.5918 9.01774 15.4024 8.83053L19.9907 7.7714C20.8013 7.58467 21.3118 6.80154 21.1318 6.02227C20.9524 5.24349 20.1499 4.76387 19.3393 4.95109L14.751 6.01021V6.01021Z" stroke="black" stroke-width="0.984336" stroke-miterlimit="10" stroke-linecap="round" stroke-linejoin="round"/>
<path d="M13.3407 9.28363C12.53 9.47084 12.019 10.2535 12.199 11.0328C12.3785 11.8115 13.181 12.2921 13.9916 12.1044L21.4006 10.3944C22.2113 10.2072 22.7223 9.42356 22.5423 8.64477C22.3628 7.86599 21.5599 7.38637 20.7492 7.57358L13.3402 9.28363H13.3407Z" stroke="black" stroke-width="0.984336" stroke-miterlimit="10" stroke-linecap="round" stroke-linejoin="round"/>
<path d="M23.9522 11.2692C23.7727 10.4904 22.9703 10.0103 22.1601 10.198L11.9303 12.5594C11.1196 12.7467 10.6087 13.5298 10.7882 14.3086C10.9681 15.0878 11.771 15.5675 12.5812 15.3802L22.811 13.0188C23.6217 12.8316 24.1327 12.0485 23.9527 11.2692H23.9522Z" stroke="black" stroke-width="0.984336" stroke-miterlimit="10" stroke-linecap="round" stroke-linejoin="round"/>
<path d="M17.3427 17.2341L24.2224 15.6461C25.0325 15.4589 25.5435 14.6758 25.3635 13.897C25.1836 13.1182 24.3811 12.6377 23.5715 12.8249L10.5203 15.8382C9.78546 16.0071 9.29716 16.6667 9.34637 17.3692" stroke="black" stroke-width="0.984336" stroke-miterlimit="10" stroke-linecap="round" stroke-linejoin="round"/>
<path d="M16.4056 2.4126H17.8531C18.6527 2.4126 19.3007 3.06062 19.3007 3.86015C19.3007 4.65968 18.8182 5.07658 18.0037 5.25752" stroke="black" stroke-width="0.965035" stroke-miterlimit="10" stroke-linecap="round" stroke-linejoin="round"/>
<path d="M16.4056 2.4126C17.3706 3.37763 16.3356 5.63967 15.36 5.8708" stroke="black" stroke-width="0.965035" stroke-miterlimit="10" stroke-linecap="round" stroke-linejoin="round"/>
<path d="M25.0909 24.1259L23.1609 29.9161C22.7396 31.1803 22.08 32.3287 20.7483 32.3287H13.993C12.6613 32.3287 12.0017 31.1803 11.5805 29.9161L9.65038 24.1259" stroke="black" stroke-width="0.965035" stroke-miterlimit="10" stroke-linecap="round" stroke-linejoin="round"/>
</svg>
