<svg width="34" height="33" viewBox="0 0 34 33" fill="none" xmlns="http://www.w3.org/2000/svg">
<path d="M17.0976 0C7.93475 0 0.195129 7.55535 0.195129 16.5C0.195129 25.4447 7.93475 33 17.0976 33C26.2604 33 34 25.4447 34 16.5C34 7.55535 26.2604 0 17.0976 0ZM17.0976 8.25C20.0166 8.25 22.1683 10.3488 22.1683 13.2C22.1683 16.0512 20.0166 18.15 17.0976 18.15C14.1802 18.15 12.0268 16.0512 12.0268 13.2C12.0268 10.3488 14.1802 8.25 17.0976 8.25ZM8.46718 24.3738C9.98333 22.1958 12.5119 20.7438 15.4073 20.7438H18.7878C21.6849 20.7438 24.2118 22.1958 25.728 24.3738C23.5678 26.631 20.5034 28.05 17.0976 28.05C13.6917 28.05 10.6273 26.631 8.46718 24.3738Z" fill="white"/>
</svg>
